<?xml version="1.0" standalone="no"?>
<!DOCTYPE svg PUBLIC "-//W3C//DTD SVG 20010904//EN"
 "http://www.w3.org/TR/2001/REC-SVG-20010904/DTD/svg10.dtd">
<svg version="1.0" xmlns="http://www.w3.org/2000/svg"
 width="100.000000pt" height="100.000000pt" viewBox="0 0 100.000000 100.000000"
 preserveAspectRatio="xMidYMid meet">
<metadata>
Created by potrace 1.14, written by Peter Selinger 2001-2017
</metadata>
<g transform="translate(0.000000,100.000000) scale(0.100000,-0.100000)"
fill="#000000" stroke="none">
<path d="M174 964 c-21 -7 -44 -21 -51 -31 -7 -9 -13 -13 -13 -8 0 15 -51 -49
-67 -85 -13 -29 -16 -84 -18 -336 -1 -295 -1 -303 21 -349 27 -55 56 -84 112
-112 38 -19 61 -20 344 -21 281 0 306 1 343 19 40 20 108 79 100 87 -2 2 3 11
11 19 8 8 12 19 9 24 -4 5 -2 9 3 9 9 0 13 48 16 183 0 48 -2 87 -6 87 -4 0
-5 7 -1 16 8 22 9 274 1 287 -4 6 -3 16 1 22 13 15 -33 106 -71 141 -64 58
-84 61 -404 61 -216 0 -301 -3 -330 -13z"/>
</g>
</svg>
